<svg width="40" height="40" viewBox="0 0 40 40" fill="none" xmlns="http://www.w3.org/2000/svg">
<path d="M2 15.6C2 10.3625 2 7.74377 3.17888 5.82001C3.83852 4.74357 4.74357 3.83852 5.82001 3.17888C7.74377 2 10.3625 2 15.6 2H24.4C29.6375 2 32.2562 2 34.18 3.17888C35.2564 3.83852 36.1615 4.74357 36.8211 5.82001C38 7.74377 38 10.3625 38 15.6V24.4C38 29.6375 38 32.2562 36.8211 34.18C36.1615 35.2564 35.2564 36.1615 34.18 36.8211C32.2562 38 29.6375 38 24.4 38H15.6C10.3625 38 7.74377 38 5.82001 36.8211C4.74357 36.1615 3.83852 35.2564 3.17888 34.18C2 32.2562 2 29.6375 2 24.4V15.6Z" fill="#222222"/>
<path d="M20 6C12.268 6 6 12.268 6 20C6 27.732 12.268 34 20 34C22.4823 34 24.8138 33.3539 26.8354 32.2208C27.2721 31.976 27.3327 31.3849 26.9786 31.0308L26.1777 30.2299C24.375 31.3208 22.2608 31.9487 20 31.9487C13.4009 31.9487 8.05128 26.5991 8.05128 20C8.05128 13.4009 13.4009 8.05128 20 8.05128C26.5991 8.05128 31.9487 13.4009 31.9487 20C31.9487 22.7241 31.0372 25.2352 29.5024 27.2451L30.3384 28.0811C30.6718 28.4145 31.2228 28.3841 31.4925 27.9973C33.0731 25.7302 34 22.9733 34 20C34 12.268 27.732 6 20 6Z" fill="url(#paint0_radial)"/>
<path d="M20 6C12.268 6 6 12.268 6 20C6 27.732 12.268 34 20 34C22.4823 34 24.8138 33.3539 26.8354 32.2208C27.2721 31.976 27.3327 31.3849 26.9786 31.0308L26.1777 30.2299C24.375 31.3208 22.2608 31.9487 20 31.9487C13.4009 31.9487 8.05128 26.5991 8.05128 20C8.05128 13.4009 13.4009 8.05128 20 8.05128C26.5991 8.05128 31.9487 13.4009 31.9487 20C31.9487 22.7241 31.0372 25.2352 29.5024 27.2451L30.3384 28.0811C30.6718 28.4145 31.2228 28.3841 31.4925 27.9973C33.0731 25.7302 34 22.9733 34 20C34 12.268 27.732 6 20 6Z" fill="url(#paint1_linear)" fill-opacity="0.5" style="mix-blend-mode:darken"/>
<path d="M29.5432 27.2762L28.4167 26.1497C28.1426 25.8756 28.1115 25.4446 28.3156 25.1151C30.5855 21.4514 30.1308 16.5792 26.9514 13.3998C23.2414 9.68974 17.2262 9.68974 13.5162 13.3998C9.80617 17.1098 9.80617 23.1249 13.5162 26.835C16.3527 29.6715 20.5367 30.3393 24.0078 28.8384C24.3211 28.703 24.6891 28.7587 24.9304 29.0001L26.2042 30.2738C24.3938 31.3694 22.2705 32 20 32C13.3726 32 8 26.6274 8 20C8 13.3726 13.3726 8 20 8C26.6274 8 32 13.3726 32 20C32 22.7358 31.0845 25.2577 29.5432 27.2762Z" fill="url(#paint2_radial)"/>
<path d="M26.0206 30.0837C24.2601 31.1371 22.2008 31.7425 20 31.7425C13.5148 31.7425 8.25751 26.4852 8.25751 20C8.25751 13.5148 13.5148 8.25751 20 8.25751C26.4852 8.25751 31.7425 13.5148 31.7425 20C31.7425 22.6582 30.8592 25.1101 29.3702 27.0782L29.554 27.262C31.0888 25.2459 32 22.7294 32 20C32 13.3726 26.6274 8 20 8C13.3726 8 8 13.3726 8 20C8 26.6274 13.3726 32 20 32C22.2722 32 24.397 31.3685 26.2083 30.2713L26.0206 30.0837Z" fill="url(#paint3_radial)"/>
<path d="M31.1326 28.2763C31.2574 28.2314 31.2836 28.0791 31.2152 27.9654L30.2498 26.0596C30.2212 26.012 30.1783 25.9747 30.1273 25.953L28.2473 25.3803C28.2217 25.3694 28.1941 25.3865 28.1894 25.414C28.145 25.6715 28.2177 25.941 28.41 26.1333L30.1602 27.9219L30.4266 28.1737C30.637 28.3252 30.903 28.3589 31.1326 28.2763Z" fill="url(#paint4_linear)"/>
<path d="M24.7158 28.8189C24.557 28.6914 24.4014 28.8811 24.4855 29.0665L25.159 30.5504C25.1838 30.6051 25.2266 30.6497 25.2803 30.6767L26.8016 31.4421C26.9706 31.5271 27.1639 31.4039 27.0799 31.2344C27.0429 31.1599 26.9931 31.0896 26.9303 31.0268L24.7797 28.8761C24.7593 28.8557 24.7379 28.8366 24.7158 28.8189Z" fill="url(#paint5_linear)"/>
<rect x="15" y="15" width="10" height="10" rx="5" fill="url(#paint6_radial)"/>
<defs>
<radialGradient id="paint0_radial" cx="0" cy="0" r="1" gradientUnits="userSpaceOnUse" gradientTransform="translate(20 18.9744) rotate(88.2101) scale(19.7019 20.812)">
<stop offset="0.546875" stop-color="white"/>
<stop offset="0.739583" stop-color="#92A5B9"/>
</radialGradient>
<linearGradient id="paint1_linear" x1="20" y1="16.1795" x2="20" y2="34" gradientUnits="userSpaceOnUse">
<stop stop-color="white" stop-opacity="0"/>
<stop offset="1"/>
</linearGradient>
<radialGradient id="paint2_radial" cx="0" cy="0" r="1" gradientUnits="userSpaceOnUse" gradientTransform="translate(20 19.176) rotate(90) scale(12.824 13.5466)">
<stop offset="0.723958" stop-color="#A7B3BF"/>
<stop offset="1" stop-color="#F3F7FB"/>
</radialGradient>
<radialGradient id="paint3_radial" cx="0" cy="0" r="1" gradientUnits="userSpaceOnUse" gradientTransform="translate(20 12.9826) rotate(90) scale(19.0174)">
<stop stop-color="#9AA7B3"/>
<stop offset="1" stop-color="#E7F2FC"/>
</radialGradient>
<linearGradient id="paint4_linear" x1="29.0423" y1="24.9846" x2="29.0502" y2="26.9753" gradientUnits="userSpaceOnUse">
<stop stop-color="#D1DCE7"/>
<stop offset="1" stop-color="#7C848C"/>
</linearGradient>
<linearGradient id="paint5_linear" x1="25.0309" y1="31.6192" x2="24.7217" y2="28.8069" gradientUnits="userSpaceOnUse">
<stop offset="0.397836" stop-color="#A7B3BF"/>
<stop offset="1" stop-color="#DAE5EF"/>
</linearGradient>
<radialGradient id="paint6_radial" cx="0" cy="0" r="1" gradientUnits="userSpaceOnUse" gradientTransform="translate(18.7229 20.6764) rotate(-48.1656) scale(6.31299 6.78213)">
<stop offset="0.364583" stop-color="#FEFEFF"/>
<stop offset="1" stop-color="#B0BECC"/>
</radialGradient>
</defs>
</svg>
