<svg xmlns="http://www.w3.org/2000/svg" xmlns:xlink="http://www.w3.org/1999/xlink" width="32" height="32" viewBox="0 0 32 32">
  <defs>
    <rect id="a" width="32" height="32" y="1"/>
  </defs>
  <g fill="none" fill-rule="evenodd">
    <use fill="#D8D8D8" xlink:href="#a"/>
    <rect width="31" height="31" x=".5" y="1.5" stroke="#979797"/>
    <g>
      <polygon fill="#CC0000" points="0 32 32 32 32 0 0 0"/>
      <g fill="#FFFFFF" transform="translate(5 11)">
        <path d="M0 1.99060664C0 .891224952.900176167 0 1.99201702 0L8.50392973 0C9.88247128 0 11 1.12855411 11 2.50977516L11 3.49022484C11 4.87633539 9.87834109 6 8.49299824 6L2.50966585 6C2.22818517 6 2 6.21505737 2 6.49047852L2 10 0 10 0 6.50977516C0 5.12366461 1.12165891 4 2.50700176 4L8.49033415 4C8.77181483 4 9 3.78596497 9 3.49531555L9 2.50468445C9 2.22595492 8.76709747 2 8.49657726 2L2.50342274 2C2.22539004 2 2 2.22148431 2 2.50872179L2 2.69999981 0 2.69999981 0 1.99060664zM12 0L22 0 22 2 18 2 18 7.50899482C18 7.78016949 18.2214846 8 18.5087225 8L18.7000008 8 18.7000008 10 18.5058234 10C17.1218953 10 16 8.88763428 16 7.49069965L16 2 12 2 12 0z"/>
      </g>
    </g>
  </g>
</svg>